<svg data-v-423bf9ae="" xmlns="http://www.w3.org/2000/svg" viewBox="0 0 150.51806973320623 60" class="font"><!----><!----><!----><g data-v-423bf9ae="" id="4a25379b-6473-4f2a-8007-bbbf26400f80" fill="white" transform="matrix(4.709576222757963,0,0,4.709576222757963,-2.496072058492473,-3.296703120974115)"><path d="M3.49 3.33C1.40 3.33 0.53 4.45 0.53 6.93C0.53 9.56 1.36 10.67 3.44 10.67C4.23 10.67 5.73 10.37 5.73 10.37L5.67 8.88C5.67 8.88 4.58 8.99 4.05 8.99C2.70 8.99 2.44 8.50 2.44 6.93C2.44 5.53 2.69 5.01 4.03 5.01C4.56 5.01 5.67 5.12 5.67 5.12L5.73 3.64C5.73 3.64 4.30 3.33 3.49 3.33ZM6.47 3.50L8.19 10.50L9.51 10.50L8.74 13.44L10.57 13.44L13.03 3.50L11.19 3.50L9.91 8.90L9.59 8.90L8.32 3.50ZM16.62 3.33C14.53 3.33 13.66 4.45 13.66 6.93C13.66 9.56 14.49 10.67 16.58 10.67C17.36 10.67 18.86 10.37 18.86 10.37L18.80 8.88C18.80 8.88 17.71 8.99 17.18 8.99C15.83 8.99 15.57 8.50 15.57 6.93C15.57 5.53 15.82 5.01 17.16 5.01C17.70 5.01 18.80 5.12 18.80 5.12L18.86 3.64C18.86 3.64 17.43 3.33 16.62 3.33ZM20.33 10.50L22.20 10.50L22.20 0.70L20.33 0.70ZM24.02 10.50L25.90 10.50L25.90 3.50L24.02 3.50ZM24.02 2.60L25.90 2.60L25.90 0.70L24.02 0.70ZM30.25 3.33C28.17 3.33 27.30 4.45 27.30 6.93C27.30 9.56 28.13 10.67 30.21 10.67C31.00 10.67 32.49 10.37 32.49 10.37L32.44 8.88C32.44 8.88 31.35 8.99 30.81 8.99C29.47 8.99 29.20 8.50 29.20 6.93C29.20 5.53 29.46 5.01 30.80 5.01C31.33 5.01 32.44 5.12 32.44 5.12L32.49 3.64C32.49 3.64 31.07 3.33 30.25 3.33Z"></path></g><!----><!----></svg>